<svg xmlns="http://www.w3.org/2000/svg" viewBox="0 0 24 24" fill="currentColor" width="24" height="24">
  <path d="M20.447 20.452h-3.554v-5.569c0-1.328-.475-2.236-1.986-2.236-1.081 0-1.722.722-2.004 1.418-.103.249-.129.597-.129.946v5.441h-3.554s.05-8.824 0-9.737h3.554v1.378c-.009.015-.021.029-.03.042h.03v-.042c.428-.659 1.191-1.6 2.897-1.6 2.117 0 3.704 1.381 3.704 4.35v5.609zM5.337 9.433c-1.144 0-1.915-.759-1.915-1.710 0-.955.771-1.71 1.958-1.71 1.187 0 1.915.754 1.948 1.71 0 .951-.761 1.71-1.991 1.71zm1.581 11.019H3.715V8.748h3.203v11.704zM22.225 0H1.771C.792 0 0 .774 0 1.729v20.542C0 23.227.792 24 1.771 24h20.451C23.2 24 24 23.227 24 22.271V1.729C24 .774 23.2 0 22.222 0h.003z"/>
</svg>