<svg xmlns="http://www.w3.org/2000/svg" viewBox="0 0 24 24" width="24" height="24" fill="currentColor">
  <path d="M17.472 14.382c-.297-.15-1.746-.862-2.01-.96-.263-.098-.454-.148-.645.148-.192.296-.744.96-.912 1.153-.168.192-.337.216-.633.072-.296-.144-1.248-.46-2.377-1.467-.879-.785-1.471-1.756-1.64-2.052-.168-.297-.018-.458.126-.606.129-.129.297-.337.446-.505.149-.169.198-.297.297-.492.099-.196.05-.365-.025-.511-.074-.148-.645-1.555-.884-2.13-.234-.571-.471-.494-.645-.503-.167-.009-.36-.009-.552-.009-.192 0-.504.072-.768.365-.263.297-1.004.981-1.004 2.39 0 1.409 1.028 2.77 1.171 2.964.143.194 2.024 3.097 4.902 4.34.684.298 1.219.476 1.635.61.686.215 1.31.187 1.803.111.551-.083 1.693-.692 1.931-1.36.238-.67.238-1.242.167-1.36-.071-.119-.263-.19-.552-.334z"/>
  <path d="M20.447 3.25H3.653C2.235 3.25 1.078 4.433 1.078 5.897v12.206c0 1.464 1.157 2.647 2.575 2.647h16.794c1.418 0 2.575-1.183 2.575-2.647V5.897c0-1.464-1.157-2.647-2.575-2.647zm0 14.853H3.653V5.897h16.794v12.206z"/>
</svg>