<svg xmlns="http://www.w3.org/2000/svg" viewBox="0 0 24 24" fill="currentColor" width="24" height="24">
  <path d="M17.471 1.338C15.571.434 13.283 0 10.857 0 4.873 0 0 4.873 0 10.857c0 1.906.437 3.741 1.305 5.403L.133 23.867l8.857-2.834c1.662.868 3.497 1.305 5.403 1.305 5.984 0 10.857-4.873 10.857-10.857 0-2.902-1.205-5.665-3.279-7.586zm-6.614 20.926c-1.662 0-3.324-.437-4.873-1.305l-.358-.224-3.741 1.205.868-3.279-.224-.358c-.868-1.449-1.449-3.110-1.449-4.873C.738 5.411 5.411 0.738 10.857 0.738c2.684 0 5.179 1.093 7.031 3.005 1.852 1.793 3.005 4.288 3.005 7.031 0 5.446-4.673 10.119-10.119 10.119zm5.589-7.586s-.693-.338-1.129-.524c-.358-.187-.812-.187-1.062.224-.338.523-1.093 1.379-1.305 1.631-.224.224-.636.224-.974-.112-.338-.224-1.379-.524-2.634-1.631-.993-.868-1.631-1.906-1.793-2.241-.224-.335-.112-.693.224-1.017.187-.187.437-.436.656-.656.224-.224.338-.436.437-.749.112-.312.056-.561-.056-.812-.112-.187-.749-1.793-.993-2.353-.269-.56-.539-.486-.749-.486-.224 0-.493 0-.749 0-.224 0-.561.056-.843.337-.269.268-.993 1.008-.993 2.354 0 1.345 1.017 2.746 1.161 2.970.112.224 1.793 2.858 4.401 3.995 2.608 1.137 2.608.749 3.110.693.499-.112 1.793-.749 2.016-1.449.224-.749.224-1.379.112-1.518-.112-.112-.437-.187-.749-.437z"/>
</svg>